<!DOCTYPE svg PUBLIC "-//W3C//DTD SVG 1.1//EN" "http://www.w3.org/Graphics/SVG/1.1/DTD/svg11.dtd">
<!-- Uploaded to: SVG Repo, www.svgrepo.com, Transformed by: SVG Repo Mixer Tools -->
<svg fill="#ffff00" width="800px" height="800px" viewBox="0 0 22 22" xmlns="http://www.w3.org/2000/svg" id="memory-arrow-up-bold" stroke="#ffff00" stroke-width="0.00022">
<g id="SVGRepo_bgCarrier" stroke-width="0"/>
<g id="SVGRepo_tracerCarrier" stroke-linecap="round" stroke-linejoin="round"/>
<g id="SVGRepo_iconCarrier">
<path d="M2 12V10H3V9H4V8H5V7H6V6H7V5H8V4H9V3H10V2H12V3H13V4H14V5H15V6H16V7H17V8H18V9H19V10H20V12H15V20H7V12H2M6 10H9V18H13V10H16V9H15V8H14V7H13V6H12V5H10V6H9V7H8V8H7V9H6V10Z"/>
</g>
</svg>